<svg version="1.1" id="Layer_1" xmlns="http://www.w3.org/2000/svg" xmlns:xlink="http://www.w3.org/1999/xlink" x="0px" y="0px"
	 width="100%" viewBox="0 0 1061 1025" enable-background="new 0 0 1061 1025" xml:space="preserve">
<path fill="none" opacity="1.000000" stroke="#C2A36B" stroke-linecap="round" stroke-linejoin="round" stroke-width="21.000000"
	d="
M1009.250000,542.000000
	C968.333313,542.000000 927.416504,542.054810 886.500244,541.922607
	C881.977722,541.908020 878.677612,543.163635 875.433533,546.434021
	C830.698669,591.531738 785.872375,636.539001 740.990051,681.490051
	C686.198669,736.365234 631.388062,791.221741 576.403015,845.902466
	C571.654053,850.625122 569.831909,855.413452 569.877686,862.000854
	C570.132507,898.665771 569.982300,935.333313 570.011414,972.000000
	C570.019531,982.204834 571.795227,983.988037 582.000000,983.989197
	C721.333313,984.005188 860.666687,984.005188 1000.000000,983.989197
	C1010.204834,983.988037 1011.988037,982.204773 1011.989258,972.000000
	C1012.005188,832.666687 1012.000000,693.333313 1012.000000,554.000000
	C1009.042419,545.500000 1011.903992,537.000488 1011.910583,528.499939
	C1012.032410,370.000031 1012.031860,211.499985 1011.936279,53.000038
	C1011.929016,40.993610 1009.987488,40.516575 999.500000,40.515903
	C693.333313,40.496254 387.166656,40.497150 81.000000,40.512558
	C70.918106,40.513065 69.083817,41.498390 69.076141,52.500053
	C68.965034,211.833298 69.008072,371.166656 68.955162,530.500000
	C68.953789,534.638000 71.397797,538.331116 71.397797,542.000000
	C71.397797,545.668884 68.953445,549.362000 68.955055,553.500000
	C69.009193,693.166687 68.987053,832.833313 69.028038,972.500000
	C69.030884,982.189819 70.810181,983.968323 80.500008,983.971863
	C200.333328,984.015076 320.166656,984.000000 440.000000,984.000000
"/>
<path fill="none" opacity="1.000000" stroke="#C2A36B" stroke-linecap="round" stroke-linejoin="round" stroke-width="20.000000"
	d="
M138.500000,542.000000
	C139.805939,544.886780 141.722763,547.299011 143.981949,549.518372
	C150.034775,555.464600 156.004730,561.495239 161.999298,567.500671
	C252.500336,658.166382 342.953278,748.880127 433.635895,839.363831
	C438.239960,843.957825 440.283813,848.362549 439.530457,854.503723
	C439.329041,856.145691 439.500000,857.833313 439.500000,859.500000
"/>
<path fill="none" opacity="1.000000" stroke="#C2A36B" stroke-linecap="round" stroke-linejoin="round" stroke-width="20.000000"
	d="
M440.000000,224.500000
	C440.000000,225.000000 439.938293,225.508926 440.009186,225.998672
	C441.179138,234.079834 438.121033,239.746445 432.168457,245.669296
	C336.429871,340.929535 240.998169,436.498199 145.510971,532.010986
	C143.243195,534.279358 140.679718,536.294128 139.466156,539.487122
	C138.296341,542.565002 135.468018,541.992004 133.000000,541.993408
	C112.666664,542.005066 92.333336,542.000000 72.000000,542.000000
"/>
<path fill="none" opacity="1.000000" stroke="#C2A36B" stroke-linecap="round" stroke-linejoin="round" stroke-width="3.000000"
	d="
M440.000000,845.500000
	C444.500000,845.500000 449.000000,845.500000 453.500000,845.500000
"/>
<path fill="none" opacity="1.000000" stroke="#C2A36B" stroke-linecap="round" stroke-linejoin="round" stroke-width="3.000000"
	d="
M440.500000,237.500000
	C444.833344,237.500000 449.166656,237.500000 453.500000,237.500000
"/>
</svg>
